<svg xmlns="http://www.w3.org/2000/svg" xmlns:xlink="http://www.w3.org/1999/xlink" id="Layer_1" width="31" height="20" x="0" y="0" enable-background="new -5.5 5.5 31 20" version="1.1" viewBox="-5.5 5.5 31 20" xml:space="preserve"><style type="text/css">.st0{fill:#fff}</style><g><path d="M24.637,966.895l-7.258-8.226c-0.507-0.57-1.476-0.665-2.056-0.121c-0.556,0.522-0.628,1.486-0.121,2.056 l5.126,5.806H-3.548c-0.802,0-1.452,0.65-1.452,1.452s0.65,1.452,1.452,1.452h23.876l-5.126,5.806 c-0.507,0.57-0.449,1.55,0.121,2.056c0.57,0.507,1.456,0.495,2.056-0.121l7.258-8.226c0.211-0.237,0.354-0.602,0.363-0.968 C24.997,967.474,24.895,967.185,24.637,966.895z" class="st0" transform="translate(0,-952.36218)"/></g></svg>